<?xml version="1.0" standalone="no"?>
<!DOCTYPE svg PUBLIC "-//W3C//DTD SVG 20010904//EN"
 "http://www.w3.org/TR/2001/REC-SVG-20010904/DTD/svg10.dtd">
<svg version="1.0" xmlns="http://www.w3.org/2000/svg"
 width="300.000000pt" height="225.000000pt" viewBox="0 0 300.000000 225.000000"
 preserveAspectRatio="xMidYMid meet">
<g transform="translate(0.000000,225.000000) scale(0.100000,-0.100000)"
fill="#cbd71d" stroke="none">
<path d="M963 1451 c-23 -16 -44 -34 -48 -40 -8 -15 -21 -14 -37 2 -58 57
-178 62 -252 10 l-43 -31 -25 27 c-50 53 -100 64 -115 25 -6 -17 37 -64 82
-90 16 -9 17 -15 9 -45 -7 -22 -16 -33 -25 -30 -49 14 -123 0 -132 -24 -3 -7
0 -21 8 -32 10 -15 24 -18 68 -17 29 0 59 4 65 8 6 4 9 -3 8 -19 -2 -13 0 -22
5 -20 4 3 9 -3 11 -12 3 -16 -30 -53 -47 -53 -12 0 -55 -49 -55 -63 0 -8 7
-20 15 -27 12 -10 22 -8 52 11 21 12 46 29 55 37 14 12 20 12 33 2 8 -7 15
-21 15 -31 0 -10 4 -20 8 -23 10 -6 9 -77 -2 -94 -4 -7 -3 -19 3 -26 6 -7 8
-21 5 -30 -10 -27 16 -64 50 -72 53 -13 60 -13 100 -7 22 3 53 18 70 33 26 24
28 30 17 44 -11 13 -11 19 -1 31 10 12 10 18 0 30 -10 12 -10 18 0 30 10 11
10 18 1 29 -9 11 -7 24 9 60 22 45 22 45 46 28 13 -9 24 -21 24 -25 0 -4 15
-14 32 -22 55 -23 88 13 54 58 -8 10 -18 19 -23 19 -4 0 -21 11 -38 24 -26 20
-28 26 -19 51 9 26 13 28 76 31 79 3 103 21 72 52 -18 18 -70 26 -118 18 -14
-2 -21 5 -27 25 -10 38 -5 49 35 71 19 10 39 29 47 42 11 22 10 27 -7 45 -20
20 -20 20 -61 -10z m-445 -32 c39 -28 53 -49 34 -49 -13 0 -92 61 -92 71 0 16
15 10 58 -22z m502 22 c0 -12 -74 -71 -89 -71 -22 0 -10 20 32 49 45 32 57 37
57 22z m-225 -16 c75 -17 135 -98 135 -183 0 -39 -8 -62 -45 -122 -24 -41 -45
-81 -45 -87 0 -7 -4 -13 -10 -13 -20 0 -9 38 31 104 52 86 59 130 30 190 -24
48 -67 82 -119 92 -108 22 -218 -83 -198 -188 3 -18 24 -60 46 -93 38 -57 52
-105 30 -105 -5 0 -10 6 -10 13 0 6 -21 46 -45 87 -37 61 -45 83 -45 123 0 94
58 164 155 188 30 7 35 6 90 -6z m-45 -64 c0 -5 -16 -12 -35 -15 -38 -7 -73
-45 -82 -88 -7 -37 -23 -36 -23 2 0 19 11 42 31 65 38 43 109 66 109 36z m60
2 c31 -21 41 -33 58 -61 15 -26 16 -98 2 -107 -6 -4 -8 -11 -5 -16 4 -5 1 -9
-4 -9 -6 0 -11 -5 -11 -10 0 -6 -12 -29 -26 -52 -15 -23 -27 -55 -26 -70 1
-28 0 -28 -57 -28 l-58 0 -1 31 c0 17 -19 62 -41 100 -22 38 -36 67 -32 65 11
-7 51 32 51 50 0 21 58 74 81 74 19 0 43 33 32 44 -13 13 14 5 37 -11z m274
-124 c-7 -11 -114 -12 -114 -1 0 15 8 17 64 14 31 -2 54 -8 50 -13z m-574 1
c0 -5 -25 -10 -55 -10 -30 0 -55 5 -55 10 0 6 25 10 55 10 30 0 55 -4 55 -10z
m50 -138 c0 -15 -89 -72 -96 -61 -3 6 2 17 12 24 11 7 28 20 39 29 22 17 45
21 45 8z m419 -19 c20 -14 38 -28 40 -29 1 -1 0 -7 -4 -13 -6 -11 -94 46 -95
62 0 14 24 6 59 -20z m-139 -112 c0 -8 -171 -71 -193 -71 -5 0 -7 5 -5 11 2 7
28 20 58 29 l55 18 -57 1 c-32 1 -58 6 -58 11 0 6 40 10 100 10 55 0 100 -4
100 -9z m0 -60 c0 -5 -37 -22 -82 -37 l-83 -28 34 -10 c26 -7 45 -6 80 7 50
18 63 15 38 -10 -24 -24 -116 -29 -155 -9 -18 9 -32 21 -32 25 0 9 160 68 188
70 6 1 12 -3 12 -8z"/>
<path d="M1335 1368 c-58 -21 -90 -45 -118 -86 -22 -33 -28 -53 -28 -101 -1
-62 24 -126 59 -148 42 -26 93 37 58 72 -9 9 -16 23 -17 31 -6 82 5 124 31
124 11 0 20 5 20 10 0 18 20 11 21 -7 0 -15 2 -15 9 2 5 12 9 -47 9 -152 1
-105 -3 -174 -9 -178 -16 -10 -12 -45 6 -52 8 -3 13 -12 10 -19 -4 -11 1 -13
22 -8 61 15 62 19 62 232 0 108 2 193 5 190 3 -3 7 -85 9 -182 2 -98 7 -180
10 -183 6 -7 9 115 6 281 -1 68 2 96 9 92 7 -5 11 -70 11 -191 0 -184 0 -185
24 -200 20 -14 28 -14 45 -3 12 7 21 23 21 35 0 13 5 23 11 23 8 0 8 4 0 14
-14 16 -9 82 8 99 8 8 11 -5 11 -51 0 -73 14 -107 49 -122 32 -13 67 -2 95 29
10 11 22 18 26 16 5 -3 6 5 4 17 -3 15 2 10 13 -12 24 -45 64 -65 104 -51 16
5 37 8 47 5 14 -5 15 -4 2 5 -23 16 3 13 39 -5 36 -18 88 -13 127 13 13 8 24
11 24 5 0 -18 90 -36 122 -24 16 6 43 8 61 5 30 -5 55 -6 102 -5 11 1 34 1 50
0 56 -3 71 7 99 65 10 22 15 49 12 62 -12 49 -69 38 -85 -18 -7 -23 -9 20 -10
150 -1 182 -1 183 -26 199 -14 9 -32 13 -45 9 -18 -6 -20 -14 -20 -88 0 -90 5
-82 -77 -121 -21 -10 -30 -21 -27 -30 3 -8 2 -22 -3 -31 -7 -11 -9 -6 -9 19 0
63 -52 97 -107 71 -52 -25 -83 -45 -70 -45 7 0 10 -7 6 -16 -5 -13 -9 -10 -18
12 -7 16 -20 35 -29 43 -44 37 -127 -2 -147 -70 -7 -21 -14 -37 -17 -35 -2 3
1 19 7 36 9 28 8 34 -16 56 -16 15 -38 24 -59 24 -36 0 -55 16 -27 22 10 3 -3
5 -29 6 -31 1 -53 -4 -63 -14 -17 -17 -21 -64 -5 -64 12 0 12 -97 0 -125 -6
-14 -9 -1 -9 45 -1 36 -4 75 -7 88 -8 29 -51 52 -87 45 l-27 -5 -1 73 c-1 65
-15 148 -18 109 -1 -12 -4 -12 -15 3 -11 14 -29 17 -112 16 -54 0 -112 -5
-129 -11z m238 -34 c16 -21 18 -40 15 -123 l-3 -98 27 29 c31 33 51 35 78 8
17 -17 20 -33 20 -108 0 -93 3 -104 25 -95 17 6 31 50 40 120 5 42 3 56 -10
69 -9 9 -15 24 -13 33 4 22 56 27 64 7 4 -11 19 -16 44 -16 56 0 64 -16 45
-88 -19 -74 -19 -106 -1 -121 11 -9 18 -8 30 4 9 9 16 19 17 23 0 4 2 27 4 52
5 85 57 149 110 136 61 -15 53 -120 -12 -161 -41 -25 -41 -39 -2 -55 27 -11
33 -11 57 7 22 16 28 31 33 78 7 61 30 101 71 124 23 13 29 13 52 -2 48 -32
26 -132 -36 -160 -16 -6 -28 -15 -28 -18 0 -15 33 -32 62 -32 39 0 68 33 68
80 0 19 7 47 15 63 17 32 65 70 89 70 13 0 16 14 16 91 0 88 1 90 23 87 22 -3
22 -5 25 -193 1 -115 7 -193 13 -200 13 -12 49 28 49 56 0 22 18 35 32 21 16
-16 0 -61 -32 -93 -31 -31 -61 -37 -82 -15 -12 11 -17 11 -33 0 -24 -18 -55
-18 -82 1 -19 13 -25 13 -59 -1 -44 -19 -94 -12 -119 16 -17 19 -18 19 -44 -1
-43 -32 -90 -34 -130 -7 l-35 23 -23 -22 c-29 -30 -58 -29 -88 2 -29 28 -31
49 -10 128 8 32 15 59 15 60 0 1 -11 2 -24 2 -22 0 -25 -5 -31 -55 -13 -110
-70 -179 -124 -151 -25 14 -30 34 -33 136 -2 44 -7 80 -12 80 -5 0 -18 -13
-30 -28 -16 -22 -22 -48 -26 -110 -4 -74 -7 -82 -25 -82 -19 0 -20 8 -23 203
l-2 202 -45 0 -45 0 0 -199 c0 -110 -3 -206 -6 -215 -8 -22 -37 -20 -59 4 -16
18 -16 20 -2 20 14 0 17 23 19 196 l3 195 -35 -6 c-71 -13 -111 -58 -112 -125
0 -28 7 -52 21 -71 25 -34 26 -42 6 -59 -33 -27 -77 49 -77 131 1 58 21 100
64 133 46 34 89 44 193 45 85 0 91 -1 108 -25z m531 -351 c-10 -7 -21 -13 -26
-13 -14 0 -8 28 8 34 10 4 13 2 8 -6 -4 -7 -3 -8 4 -4 7 4 13 19 13 34 2 27 2
27 6 -3 3 -20 -1 -33 -13 -42z m199 52 c-3 -9 -8 -14 -10 -11 -3 3 -2 9 2 15
9 16 15 13 8 -4z m-386 -47 c-3 -8 -6 -5 -6 6 -1 11 2 17 5 13 3 -3 4 -12 1
-19z m380 5 c4 -11 -32 -25 -41 -15 -8 8 15 33 27 29 6 -2 12 -8 14 -14z"/>
<path d="M2030 1115 c-15 -18 -31 -95 -20 -95 14 0 40 37 46 67 7 35 -8 50
-26 28z"/>
<path d="M2218 1116 c-16 -15 -33 -84 -24 -93 18 -18 62 67 48 93 -8 14 -10
14 -24 0z"/>
<path d="M2413 1105 c-26 -18 -46 -83 -37 -120 8 -33 40 -51 60 -34 10 8 14
34 14 90 0 44 -3 79 -8 79 -4 0 -17 -7 -29 -15z m17 -75 c0 -52 -8 -61 -31
-34 -10 12 -10 20 -1 35 7 10 12 26 12 34 0 8 5 15 10 15 6 0 10 -22 10 -50z"/>
<path d="M2401 1014 c0 -11 3 -14 6 -6 3 7 2 16 -1 19 -3 4 -6 -2 -5 -13z"/>
</g>
</svg>
